inDegrees=no
num_controls=7
num_derivatives=13
num_iterations=41
num_multipliers=7
num_parameters=0
num_slacks=7
num_states=26
objective=0.425557
objective_accelerations=0.061116
objective_balance=0.001196
objective_effort=0.015938
objective_height=0.341379
objective_ligament=0.005927
solver_duration=627.551546
status=Solve_Succeeded
success=true
DataType=double
version=3
OpenSimVersion=4.5
endheader
time	/jointset/ground_pelvis/pelvis_tilt/value	/jointset/ground_pelvis/pelvis_tx/value	/jointset/ground_pelvis/pelvis_ty/value	/jointset/hip_l/hip_flexion_l/value	/jointset/hip_l/hip_adduction_l/value	/jointset/hip_l/hip_rotation_l/value	/jointset/back/lumbar_extension/value	/jointset/patellofemoral_l/patellar_flexion_l/value	/jointset/knee_l/knee_flexion_l/value	/jointset/knee_l/knee_adduction_l/value	/jointset/knee_l/knee_rotation_l/value	/jointset/ankle_l/ankle_angle_l/value	/jointset/subtalar_l/subtalar_angle_l/value	/jointset/ground_pelvis/pelvis_tilt/speed	/jointset/ground_pelvis/pelvis_tx/speed	/jointset/ground_pelvis/pelvis_ty/speed	/jointset/hip_l/hip_flexion_l/speed	/jointset/hip_l/hip_adduction_l/speed	/jointset/hip_l/hip_rotation_l/speed	/jointset/back/lumbar_extension/speed	/jointset/patellofemoral_l/patellar_flexion_l/speed	/jointset/knee_l/knee_flexion_l/speed	/jointset/knee_l/knee_adduction_l/speed	/jointset/knee_l/knee_rotation_l/speed	/jointset/ankle_l/ankle_angle_l/speed	/jointset/subtalar_l/subtalar_angle_l/speed	/forceset/tau_hip_flexion_l	/forceset/tau_hip_adduction_l	/forceset/tau_hip_rotation_l	/forceset/tau_knee_flexion_l	/forceset/tau_ankle_angle_l	/forceset/tau_subtalar_angle_l	/forceset/tau_lumbar_extension	lambda_cid13_p0	lambda_cid13_p1	lambda_cid13_p2	lambda_cid13_p3	lambda_cid13_p4	lambda_cid13_p5	lambda_cid14_p0	/jointset/ground_pelvis/pelvis_tilt/accel	/jointset/ground_pelvis/pelvis_tx/accel	/jointset/ground_pelvis/pelvis_ty/accel	/jointset/hip_l/hip_flexion_l/accel	/jointset/hip_l/hip_adduction_l/accel	/jointset/hip_l/hip_rotation_l/accel	/jointset/back/lumbar_extension/accel	/jointset/patellofemoral_l/patellar_flexion_l/accel	/jointset/knee_l/knee_flexion_l/accel	/jointset/knee_l/knee_adduction_l/accel	/jointset/knee_l/knee_rotation_l/accel	/jointset/ankle_l/ankle_angle_l/accel	/jointset/subtalar_l/subtalar_angle_l/accel	gamma_cid13_p0	gamma_cid13_p1	gamma_cid13_p2	gamma_cid13_p3	gamma_cid13_p4	gamma_cid13_p5	gamma_cid14_p0
1.5	-0.3576555947610581	0.05205493021035447	0.7842649612997533	1.040832621916954	-0.3548624808559116	-0.05008973160205316	-0.3309736134090602	0.8479626831731466	0.8479626831731473	-0.01989631524177274	-0.1715545732303241	0.2869573429405705	0.1643521228051255	0.5210159575054467	0.2734419740119797	0.5283384725820871	-2.410017119656585	0.004150781017849481	-0.5970359149145796	0.6085257754442387	-2.276465493805698	-2.276465493805648	-0.3197550376625348	0.03998277729361963	-0.5630011955774441	-0.2246011621502934	-0.1394749186894565	0.08445361765799106	-0.003759499115431244	-0.1225262158171558	-0.03925249885130652	-0.01464375170479593	0.1302231628255488	-38.23642257138529	14.00661721940135	-3.601364377233888	0.268604689380567	-427.6393464160247	-20.7930452402772	-8.899939869593839	0.6663966899266371	0.5389145571171212	-0.8109215700400445	-1.25069037791739	0.3352594235901226	-0.4280619393029276	1.620717367229469	-1.223811782175147	-1.223811782175152	-0.1302083757369697	0.3947008578714061	-0.6978939903902234	0.4054040591312852	6.941810603622325e-07	-5.15000548888659e-07	-8.405746573673964e-06	-4.536018600836681e-07	1.57581594249153e-06	1.633590864833063e-06	9.551029464922056e-07
1.51	-0.3524122119873396	0.05481609664098733	0.789506794393433	1.016671194281056	-0.3548072810928156	-0.05607213536236885	-0.3248092675241334	0.8251389178116404	0.8251389178116254	-0.02311212586612671	-0.1711327222288752	0.2812924568424647	0.1621220765732339	0.5275539188005123	0.2787618323537304	0.5199127373628437	-2.42194826071302	0.006863283237326263	-0.5992621742593955	0.624252990731715	-2.287975425674391	-2.287975425674401	-0.323495479255061	0.04448897305846584	-0.5698632486249348	-0.2214023947356926	-0.134481552150871	0.08280806955601812	-0.002872782208667755	-0.1200337789875335	-0.03803683162544356	-0.0155133407042615	0.1261813778266536	-37.68066759240642	14.07122946603974	-3.365239914163952	0.1191318712095886	-424.2205037742984	-20.88507529319912	-9.848495545748396	0.6315558500189161	0.5240154726776833	-0.8753839070556038	-1.116207498721895	0.2366422893711676	-0.09152527267304165	1.535161987959033	-1.067945468003867	-1.067945468012957	-0.5095099062144279	0.4922847350759749	-0.6634331236119091	0.2789982103474249	6.911043019082548e-07	-4.082697179019439e-07	-8.275287221224324e-06	-4.315437309419625e-07	1.614578574663181e-06	1.910058505207181e-06	9.335926691443852e-07
1.52	-0.3471066376005389	0.05762956045503216	0.7946609732530825	0.9924000789287363	-0.3547254769739079	-0.0620711251842307	-0.3184903618106408	0.8022093808156607	0.8022093808156969	-0.02636805047732707	-0.1706630681099608	0.2755623357815495	0.159924395041029	0.5334542801244953	0.2839014506943716	0.5108076257761095	-2.431954662938068	0.009471652186612561	-0.6003531272283067	0.6394377411573017	-2.297619820694576	-2.297619820694647	-0.3277778350557734	0.04954340079470674	-0.5760481881397569	-0.2181282222121741	-0.1294881856122898	0.08116252145401352	-0.001986065301419477	-0.1175413421578941	-0.0368211643995813	-0.01638292970375991	0.1221395928277517	-37.12045346241894	14.13395050636026	-3.127538834808739	-0.07665190078040471	-420.715113208581	-21.09474028422411	-10.79485759808115	0.5388766957100869	0.502866556895299	-0.9467968435381574	-0.8657426116399564	0.3144327695519152	-0.2010006641221651	1.512224394851506	-0.850704412473544	-0.8507044124735477	-0.2385912173741194	0.5043472521502304	-0.5624712838564654	0.4204850809148409	6.775661773691107e-07	-2.873786177627756e-07	-8.042171751092947e-06	-4.012055165044612e-07	1.654342147139232e-06	2.187829948191406e-06	8.973538105960637e-07
1.53	-0.3417452689835083	0.06049314706877611	0.7997207867863808	0.9680390187710893	-0.3546172117569988	-0.0680813146279638	-0.3120225063278673	0.7791926910204822	0.7791926910202679	-0.0296636030942027	-0.1701429426869583	0.2697735837268508	0.1577610752293969	0.5387098791949965	0.2887485604501339	0.5010474311808604	-2.439869153831789	0.01224162764713179	-0.6020067911306002	0.654022954685626	-2.305380229832891	-2.30538022983293	-0.3309418840775496	0.05427998946600871	-0.5815980305770168	-0.2144180442793421	-0.1251346479144201	0.0799545912758227	-0.001021949852624564	-0.1139441401670919	-0.03773426884464307	-0.01749069328478561	0.1184291322086956	-37.2980981387528	14.38113135775865	-2.864224159652998	0.5370548324139958	-417.4949249220645	-20.93052292457133	-11.73685870462491	0.5025226797651907	0.4654682207768761	-1.00643481768746	-0.695979022791251	0.2684986896028161	-0.1949414642170822	1.415109724960611	-0.68818642233891	-0.6881864223341347	-0.2969858434851751	0.4266840972598867	-0.5355979960689079	0.3648445875724466	6.529128513644776e-07	-1.514422316491259e-07	-7.69998415592472e-06	-3.620697114401769e-07	1.695169218688707e-06	2.466986681448869e-06	8.454658345222098e-07
1.54	-0.3363346201423548	0.06340317178724973	0.8046798375636929	0.9436104783655876	-0.3544792030344289	-0.07411751915296702	-0.3054121107311843	0.7561085016821274	0.7561085016821794	-0.0329791310199225	-0.1695817774931695	0.2639324617933246	0.1556385692847096	0.5433103249473635	0.2931890716403061	0.4906550745788932	-2.445450712507599	0.01542035331976861	-0.6055561434703147	0.667945763939477	-2.311119729284338	-2.311119729284345	-0.3317728970556252	0.05775135504292933	-0.5865221639105991	-0.2099654488223197	-0.1207811102167814	0.07874666109724195	-5.783439919507177e-05	-0.1103469381764083	-0.03864737328987146	-0.018598456866514	0.1147186715895131	-37.47007014370885	14.62620026405489	-2.599294099244112	1.094026432354917	-414.184896722266	-20.87930505916834	-12.67346189920224	0.4078460320832051	0.4215468437772885	-1.07322924488178	-0.399156168057838	0.3961828119750958	-0.5801383516066148	1.379743539956835	-0.4465224751000961	-0.446522475100088	0.2280159913661106	0.2513026332739012	-0.4373294631208748	0.5689685857529558	6.149068270528714e-07	4.767709222157169e-07	-7.277159146388988e-06	-2.547599213420881e-07	1.67836056342153e-06	2.826641242012539e-06	8.388006373641863e-07
1.55	-0.330881158238381	0.06635562627049274	0.8095319697593403	0.9191372299243178	-0.3543083199275796	-0.08019464087973968	-0.2986662682391125	0.7329767357864209	0.7329767357879542	-0.03629599693969145	-0.1689904616652604	0.2580450144992421	0.1535628876072567	0.5472705597885343	0.2972383378141464	0.4796788775732687	-2.448845901217901	0.01872190215413196	-0.6094863356905684	0.6810761379798719	-2.314920477882052	-2.314920477882048	-0.3318304396969581	0.06073376140566911	-0.5908863404517366	-0.2052005384167961	-0.1160738768077641	0.07685993617938366	0.001085631962661946	-0.1078832926204678	-0.03838940171494437	-0.01986716982039909	0.1107884517866163	-37.30745190669364	14.94004771492041	-2.410969578877728	1.424395222296995	-411.3293165651336	-20.89902409627522	-13.60455051590375	0.3734400236952461	0.3871002964104163	-1.123378191948629	-0.2566586420075517	0.2927482375451279	-0.2411938137271448	1.257694861549911	-0.3000871736320121	-0.3000871736304742	-0.1570772683054568	0.3538560906147968	-0.4237213316531653	0.4262069617984346	5.615161720832319e-07	1.672172525880816e-06	-6.761425811603742e-06	-6.890184413983774e-08	1.595145527256908e-06	3.279043299255093e-06	8.842399463483121e-07
1.56	-0.3253914284233705	0.06934667017391667	0.8142716273322227	0.8946406379120395	-0.3541052998688818	-0.08629941135960843	-0.2917935199015319	0.7098163151818001	0.7098163151817122	-0.03962032586804946	-0.1683628924800662	0.2521163735232167	0.1515340459726267	0.5505639071719268	0.3009069556764945	0.4681601500259087	-2.450119426708079	0.02184774372329607	-0.6110858941702333	0.6933269330390468	-2.31685067134075	-2.316850671340735	-0.3332654973949833	0.06500202588189599	-0.5947609002745748	-0.2005974402573617	-0.1113666433974753	0.07497321126342624	0.002229098299424087	-0.105419647063773	-0.03813143013914869	-0.02113588277079162	0.1068582319844378	-37.13897858112625	15.25203933529156	-2.221392685625514	1.707577710494288	-408.3795898076539	-21.02091479642851	-14.53068184910661	0.2744685405277001	0.3454171814791183	-1.181735353228841	0.02517647596717941	0.3610413589365473	-0.1140116034887152	1.203827743712598	-0.07241144729684403	-0.07241144729684433	-0.04748701997270816	0.5084742559710369	-0.3394061194607925	0.5366061365349689	3.220131863999264e-07	3.845824010073585e-06	-4.243798028065013e-06	3.206868292382046e-07	1.093542332840855e-06	3.285679266047281e-06	7.924652458646334e-07
1.57	-0.3198723042214945	0.07237255102580745	0.8188933918945325	0.8701429597036914	-0.3538696206904645	-0.09242318320661476	-0.2848018790899336	0.686647364985758	0.6866473649850345	-0.04295242004364712	-0.1676951392969381	0.2461528839134156	0.149554182470655	0.5531811949084964	0.3042140569050958	0.4561123561113844	-2.449090860298316	0.02523292090884632	-0.6132547909044314	0.7048773026116383	-2.316582080409558	-2.316582080409534	-0.3334239749202678	0.06875279685566003	-0.5978170042338976	-0.1954211955776499	-0.1070196270579328	0.07291147833860688	0.003307865124272516	-0.1029332394641379	-0.03795449823304201	-0.0224352304254159	0.1032481345617597	-37.01603188947417	15.58470008739342	-2.034422555420649	1.917367326587033	-405.8083951945038	-21.1402146776556	-15.45164066960135	0.2433789811189182	0.3153500985974762	-1.228466551376349	0.1904570393166167	0.3174034737283587	-0.2060692107674081	1.112052563661456	0.1300119755214137	0.1300119755228553	-0.0390157324167854	0.3397695241240772	-0.2703830031111734	0.4993619947051612	-1.501302126754594e-07	7.24228784492593e-06	7.761978164155467e-07	9.649387478359842e-07	6.895394061051921e-08	2.735107619776515e-06	5.291730335462008e-07
1.58	-0.3143294031240464	0.07542990159099408	0.8233922454895343	0.8456653192225951	-0.3536020602250421	-0.09855619212161312	-0.2776984523826895	0.6634918042208271	0.6634918042208773	-0.04629389651424564	-0.1669836002043315	0.2401624991702916	0.1476243270876837	0.5553192862810962	0.3072008983356669	0.4435779565643566	-2.446111881255026	0.0282240011091157	-0.6129333077340289	0.7156841121694105	-2.314172784990598	-2.314172784990565	-0.3351419569900853	0.07375920807129636	-0.6001399269509478	-0.1905958164573306	-0.1026726107190425	0.07084974541287804	0.004386631960170288	-0.1004468318649331	-0.03777756632734335	-0.02373457808167119	0.09963803713870828	-36.89427691976641	15.91907809164669	-1.849447502487984	2.143553648469986	-403.2411746251539	-21.23614283925885	-16.35654930726652	0.178629267733538	0.2813652218731579	-1.279056479729551	0.4152590026722869	0.2822219618796771	0.3840643774314157	1.0551157407488	0.355729450256594	0.3557294502566003	-0.3593879288794636	0.7596023043455953	-0.1927698710061921	0.4664330246564906	-3.71095701606086e-07	8.689893199368243e-06	3.089905704266192e-06	1.247585482156356e-06	-3.994454411162289e-07	2.44659814292314e-06	3.94703731343354e-07
